<?xml version="1.0" encoding="UTF-8" standalone="no"?>
<svg
   width="24"
   height="24"
   viewBox="0 0 24 24"
   version="1.1"
   id="svg1"
   sodipodi:docname="reddit.svg"
   inkscape:version="1.4 (86a8ad7, 2024-10-11)"
   xmlns:inkscape="http://www.inkscape.org/namespaces/inkscape"
   xmlns:sodipodi="http://sodipodi.sourceforge.net/DTD/sodipodi-0.dtd"
   xmlns="http://www.w3.org/2000/svg"
   xmlns:svg="http://www.w3.org/2000/svg">
  <defs
     id="defs1" />
  <sodipodi:namedview
     id="namedview1"
     pagecolor="#ffffff"
     bordercolor="#000000"
     borderopacity="0.25"
     inkscape:showpageshadow="2"
     inkscape:pageopacity="0.0"
     inkscape:pagecheckerboard="0"
     inkscape:deskcolor="#d1d1d1"
     inkscape:zoom="64"
     inkscape:cx="10.4375"
     inkscape:cy="10.257812"
     inkscape:window-width="1920"
     inkscape:window-height="974"
     inkscape:window-x="-11"
     inkscape:window-y="-11"
     inkscape:window-maximized="1"
     inkscape:current-layer="svg1" />
  <title
     id="title1">Reddit SVG Icon</title>
  <path
     fill="#fc4e03"
     d="m 14.997807,16.099087 c 0.09598,0.108121 0.09598,0.336393 0,0.468546 -0.875871,0.840982 -2.507633,0.913067 -2.999562,0.913067 -0.467931,0 -2.0996914,-0.07209 -2.9515669,-0.913067 -0.1199826,-0.132153 -0.1199826,-0.36042 0,-0.468546 0.1319807,-0.120141 0.3359508,-0.120141 0.4559334,0 0.5519185,0.552645 1.6917515,0.708826 2.4956335,0.708826 0.82788,0 1.99171,-0.156181 2.519633,-0.708826 0.13198,-0.120141 0.335951,-0.120141 0.479929,0 m -4.499341,-2.847324 c 0,-0.684799 -0.5639172,-1.249458 -1.2478178,-1.249458 -0.6839006,0 -1.2478175,0.564659 -1.2478175,1.249458 0,0.684799 0.5639169,1.261472 1.2478175,1.249458 0.6839006,0 1.2478178,-0.564659 1.2478178,-1.249458 m 4.247379,-1.249458 c -0.683901,0 -1.247818,0.600702 -1.247818,1.261473 0,0.66077 0.563917,1.249457 1.247818,1.249457 0.683899,0 1.247817,-0.576673 1.247817,-1.249457 0,-0.660771 -0.563918,-1.261473 -1.247817,-1.261473 m 9.250647,0 c 0,6.607712 -5.399211,12.014022 -11.998247,12.014022 C 5.3992111,24.016327 0,18.610017 0,12.002305 0,5.3945916 5.3992111,-0.01171875 11.998245,-0.01171875 c 6.599036,0 11.998247,5.40631035 11.998247,12.01402375 m -3.995416,0 c 0,-0.973137 -0.803882,-1.754049 -1.739745,-1.754049 -0.47993,0 -0.911868,0.192225 -1.223821,0.492575 C 15.837684,9.8758219 14.193925,9.3231769 12.358193,9.2510928 l 0.803883,-3.7603891 2.603619,0.564659 c 0.024,0.6607713 0.575916,1.1893882 1.247818,1.1893882 0.6839,0 1.247818,-0.564659 1.247818,-1.2494583 0,-0.6847992 -0.563918,-1.2494583 -1.247818,-1.2494583 -0.491928,0 -0.923865,0.2883366 -1.115837,0.7088273 L 12.982103,4.8299325 c -0.08398,-0.036042 -0.167976,0 -0.227968,0.048056 -0.07198,0.048056 -0.107982,0.1201402 -0.119982,0.2042384 l -0.88787,4.1808795 C 9.8865555,9.3231771 8.2068008,9.8758219 6.9829794,10.752845 6.6710247,10.452495 6.2390875,10.272284 5.7711561,10.272284 c -0.9718581,0 -1.7517432,0.780912 -1.7517432,1.730021 0,0.732855 0.4319363,1.333556 1.0318484,1.609879 -0.023998,0.192225 -0.035997,0.336393 -0.035997,0.528617 0,2.667112 3.1315423,4.889707 6.9829787,4.889707 3.875435,0 7.018974,-2.186552 7.018974,-4.889707 0,-0.168196 -0.012,-0.336392 -0.04799,-0.528617 0.599912,-0.276323 1.031848,-0.889038 1.031848,-1.609879"
     id="path1"
     style="stroke-width:1.20062" />
</svg>
